<svg width="19" height="21" viewBox="0 0 19 21" fill="none" xmlns="http://www.w3.org/2000/svg">
<path d="M4.50009 7.25H5.00009V6.75V5.5C5.00009 4.30653 5.47419 3.16193 6.31811 2.31802C7.16202 1.47411 8.30661 1 9.50009 1C10.6936 1 11.8382 1.47411 12.6821 2.31802C13.526 3.16193 14.0001 4.30653 14.0001 5.5V6.75V7.25H14.5001H15.7501H15.7501C15.9348 7.24999 16.1129 7.31808 16.2505 7.44125C16.388 7.56441 16.4753 7.73399 16.4956 7.9175L16.4956 7.91772L17.7456 19.1675C17.7456 19.1676 17.7456 19.1676 17.7456 19.1677C17.7572 19.2725 17.7466 19.3785 17.7144 19.4788C17.6822 19.5793 17.6292 19.6718 17.5589 19.7503L17.9314 20.0839L17.5589 19.7503C17.4885 19.8289 17.4024 19.8917 17.3061 19.9348C17.2099 19.9778 17.1056 20 17.0001 20H17.0001H2.00009H2.00005C1.8946 20 1.79032 19.9778 1.69404 19.9348C1.59776 19.8917 1.51163 19.8289 1.44128 19.7503C1.37093 19.6718 1.31794 19.5793 1.28576 19.4788C1.25359 19.3784 1.24295 19.2723 1.25455 19.1675L2.50453 7.91772L2.50455 7.9175C2.52486 7.73398 2.61215 7.56441 2.74971 7.44125C2.88726 7.31808 3.06541 7.24999 3.25005 7.25H3.25009H4.50009ZM12.0001 7.25H12.5001V6.75V5.5C12.5001 4.70435 12.184 3.94129 11.6214 3.37868C11.0588 2.81607 10.2957 2.5 9.50009 2.5C8.70444 2.5 7.94138 2.81607 7.37877 3.37868C6.81616 3.94129 6.50009 4.70435 6.50009 5.5V6.75V7.25H7.00009H12.0001ZM4.51265 11.7374L4.8157 11.4344L4.51265 11.7374C4.84084 12.0656 5.28596 12.25 5.75009 12.25C6.21422 12.25 6.65933 12.0656 6.98752 11.7374C7.31571 11.4092 7.50009 10.9641 7.50009 10.5C7.50009 10.0359 7.31571 9.59075 6.98752 9.26256C6.65933 8.93438 6.21422 8.75 5.75009 8.75C5.28596 8.75 4.84084 8.93438 4.51265 9.26256L4.8157 9.56561L4.51265 9.26256C4.18446 9.59075 4.00009 10.0359 4.00009 10.5C4.00009 10.9641 4.18446 11.4092 4.51265 11.7374ZM13.2501 8.75C12.786 8.75 12.3408 8.93438 12.0127 9.26256C11.6845 9.59075 11.5001 10.0359 11.5001 10.5C11.5001 10.9641 11.6845 11.4092 12.0126 11.7374C12.3408 12.0656 12.786 12.25 13.2501 12.25C13.7142 12.25 14.1593 12.0656 14.4875 11.7374C14.8157 11.4092 15.0001 10.9641 15.0001 10.5C15.0001 10.0359 14.8157 9.59075 14.4875 9.26256C14.1593 8.93438 13.7142 8.75 13.2501 8.75Z" fill="#777777" stroke="#777777"/>
</svg>
